<svg version="1" xmlns="http://www.w3.org/2000/svg" width="1174.667" height="1174.667" viewBox="0 0 881.000000 881.000000"><path d="M423.7.6c-.1.1-5.7.5-12.3.8-6.7.4-13 .8-14 1-1.1.2-5 .7-8.7 1.1-3.7.3-7.6.8-8.5 1-.9.1-3.7.6-6.2.9-10.5 1.4-28 4.9-40.5 8.1-5.5 1.4-11.1 2.8-12.4 3.1-1.8.4-21.1 6.7-35.6 11.8-16 5.5-53.3 23.4-71 34.1C149.4 101.8 96 156.1 58.5 221 51.9 232.5 36 263.9 36 265.5c0 .3-.9 2.4-1.9 4.8-11.6 25-26.3 77.8-29.6 105.7-.1.8-.5 3.7-.8 6.5-.8 5.3-1.3 10.1-2.5 23-1.5 16.3-.6 78 1.3 83.8.2.7.6 3.9.9 7.2.7 7.1 4.1 28.6 5.7 35.3.6 2.6 1.2 5.5 1.4 6.4 2.6 12.6 11.1 40.7 17.3 57.5 7.4 19.8 21.5 49.7 30.2 64 2.2 3.6 4 6.7 4 7 0 2.4 33.8 49.9 40.5 56.9.5.6 5 5.6 9.9 11.2C160.3 789 226.1 832.7 296 856.9c9.8 3.4 30.1 9.6 35 10.6.8.2 6.7 1.5 13 3 12.9 2.9 29.8 5.7 47.8 8 21.5 2.7 78.5 2.7 96.2 0 1.4-.2 5-.7 8-1 3-.3 6.2-.8 7-1 .8-.2 4.2-.7 7.4-1 3.3-.3 6.2-.8 6.5-1 .3-.1 2.4-.6 4.6-.9 23.2-3.7 68.7-17.4 90.1-27.2 2.9-1.3 5.5-2.4 5.7-2.4 1 0 27.3-13 34.7-17.1 26.2-14.4 48.9-30.1 72.5-49.8 8.8-7.4 37.7-35.7 46.6-45.6 4.3-4.9 22-26.9 24.9-31.1 10.6-15.2 19-28.1 25-38.4 9.7-16.7 22.6-42.9 27.6-56.2.9-2.4 2.2-5.7 2.9-7.3 3.9-9.1 14.3-42.4 17-55 .5-2 1-4.3 2-8.7.3-1.3.8-3.7 1-5.3.3-1.7.8-3.7 1-4.5.2-.8.7-3.5 1-6 .4-2.4.8-4.7 1-5 .2-.3.6-2.9 1-5.9.4-3 .8-6.1 1-7 .1-.9.6-4.5 1-8.1.3-3.6.8-7.6 1-9 2.3-15.2 2.3-67.3.1-85.5-.2-1.7-.7-5.9-1.1-9.5-.5-5.4-2.5-18.4-5-33.4-.3-1.7-1.7-8.1-3.1-14.1-16.1-69.1-48.7-133.5-94.8-187.4-10.6-12.5-35.3-37.4-44.6-45-3.6-3-6.7-5.7-7-6-3.1-3.8-34.3-26.5-50-36.3-11.9-7.5-43.5-24.5-47-25.3-.3-.1-3-1.3-6-2.7-26.6-12.6-76.7-28-101.6-31.4-2.7-.3-5.1-.8-5.4-.9-1.4-.9-30.8-4.3-43.4-5.1-8.3-.6-45.4-1.2-45.9-.8zm34.8 50.8c8.8.3 17.1.8 18.5 1 1.4.2 5.2.7 8.5 1 7.5.8 19.1 2.6 33 5.2 9 1.6 32.4 8 45.3 12.3 32.9 11 61.1 24.9 93.2 45.6 4.8 3.2 26.9 19.6 31 23.1 51.3 43.8 86.9 91.4 111 148.4 5.1 12 15.3 40.4 16.5 46 .2.8 1.2 4.9 2.3 9 2.7 10.3 6.9 30.9 8.2 40.5.6 4.4 1.3 9.1 1.5 10.5 2.4 15.8 3.4 50.5 2.1 70-.9 13.1-2.8 30.1-4.2 38.5-.3 1.6-.7 3.9-.9 5-1.2 7.9-2.1 11.8-5.5 26-11.2 45.4-28.3 84.4-54.3 123.5-15.3 23-29.3 39.9-50.7 61.1-38.7 38.4-84.6 68-135.3 87.4-22.2 8.4-52.5 16.7-74.1 20.1-2.1.3-4.8.7-6 1-1.1.2-4.8.6-8.1 1-3.3.3-6.5.7-7.2.9-3.3 1.1-25.2 2-45.3 1.9-23.7 0-34.6-.8-56.6-3.9-7.5-1.1-30.8-5.9-39.4-8.2C227.1 788 134.1 709.4 84.1 600.1 74.9 580 63.3 545 59.4 525.8c-.2-1.3-.7-3.4-.9-4.8-.5-2.1-2.4-12.6-4-22-.3-1.4-.7-4.8-1.1-7.5-.3-2.8-.7-6.4-1-8-1.8-13.2-2.5-54.2-1.1-72.5.8-11 1.2-14.9 3.2-28 .8-5.2 1.7-10.9 1.9-12.5.7-4.8 5.4-25.3 7.7-33.5 15.5-55.8 45.8-111.9 83.6-154.3 5.6-6.2 28-28.6 33.8-33.7 2.8-2.5 6.6-5.9 8.5-7.5 4.9-4.3 21.9-17.1 31.5-23.6 37.6-25.7 82.4-45.5 127.5-56.5.8-.2 5.6-1.2 10.5-2.3 8.5-1.8 11.3-2.3 20.3-3.7 2-.3 4.8-.7 6.2-.9 2.7-.5 9.3-1.3 17.5-2.1 2.8-.2 11.8-.7 20-1.1 8.3-.3 15.1-.7 15.3-.8.2-.2 1.1-.1 2 .1.9.1 8.9.5 17.7.8z"/><path d="M528.2 220.5c-.4.5-1.2 1.9-1.8 3-1 1.9-16.8 29.5-51.7 90-8.3 14.3-15.9 27.6-17 29.5-1.1 1.9-8.1 14.3-15.7 27.5s-14.7 25.6-15.8 27.5c-15 26.5-26.5 46-27.1 45.9-.5 0-32.1-53.7-42.5-72.3-1.6-2.8-3.7-6.2-4.6-7.6l-1.8-2.5-78.6-.2c-43.4-.1-78.8.2-79.1.7-.4.7 23.3 42.8 52 92 4 6.9 15.1 26.2 24.8 43 9.6 16.8 29 50.5 43.1 75 14.1 24.5 39.2 68.2 55.9 97.2 16.6 29 30.4 52.7 30.7 52.8.3 0 3.8-5.5 7.7-12.2 8.9-15.4 43.8-75.9 46.8-81.3 1.3-2.2 13.2-22.9 26.5-46 13.4-23.1 25.1-43.5 26.2-45.3 1-1.8 8.6-15.1 17-29.5 8.3-14.4 16.2-28.2 17.6-30.7 1.4-2.5 14.2-24.8 28.5-49.5 14.3-24.8 31.1-54 37.4-64.9 6.3-11 12.6-21.6 13.9-23.7 1.3-2.1 2.4-4.1 2.4-4.5 0-.3 2-3.8 4.3-7.7 2.4-4 5.6-9.5 7.2-12.2 1.5-2.8 6.9-12.2 12-21 18.7-32.3 39.3-68.1 40.9-71.2l1.6-3.2-80.1.2c-52.1.1-80.3.5-80.7 1.2z"/></svg>