<?xml version="1.0" encoding="utf-8"?>
<!-- Generator: Adobe Illustrator 22.0.1, SVG Export Plug-In . SVG Version: 6.00 Build 0)  -->
<svg version="1.1" id="Layer_1" xmlns="http://www.w3.org/2000/svg" xmlns:xlink="http://www.w3.org/1999/xlink" x="0px" y="0px"
	 viewBox="0 0 880.4 880.4" style="enable-background:new 0 0 880.4 880.4;" xml:space="preserve">
<style type="text/css">
	.st0{fill:#683A3A;}
	.st1{fill:#C10E00;}
</style>
<g>
	<path class="st0" d="M605.7,219h83L399.2,721.4L191.7,361h82h76.8l48.8,83.6L528.9,219H605.7z"/>
	<path class="st1" d="M191.7,361l207.5,360.5L688.7,219h-83L399.2,588.2L273.7,361H191.7z"/>
</g>
<g>
	<path class="st1" d="M440.2,50c215.5,0,390.2,174.7,390.2,390.2S655.7,830.4,440.2,830.4S50,655.7,50,440.2S224.7,50,440.2,50
		 M440.2,0c-59.4,0-117.1,11.6-171.4,34.6c-52.4,22.2-99.5,53.9-139.9,94.3c-40.4,40.4-72.1,87.5-94.3,139.9
		C11.6,323.1,0,380.8,0,440.2s11.6,117.1,34.6,171.4C56.8,664,88.5,711,128.9,751.4c40.4,40.4,87.5,72.1,139.9,94.3
		c54.3,23,112,34.6,171.4,34.6s117.1-11.6,171.4-34.6c52.4-22.2,99.5-53.9,139.9-94.3c40.4-40.4,72.1-87.5,94.3-139.9
		c23-54.3,34.6-112,34.6-171.4s-11.6-117.1-34.6-171.4c-22.2-52.4-53.9-99.5-94.3-139.9C711,88.5,664,56.8,611.5,34.6
		C557.2,11.6,499.6,0,440.2,0L440.2,0z"/>
</g>
</svg>
